<svg width="32" height="32" viewBox="0 0 32 32" fill="none" xmlns="http://www.w3.org/2000/svg">
<path d="M23.5295 32L11.6364 32V26.1818H20.1815L23.5295 32Z" fill="#1376BE"/>
<path d="M11.6364 32H5.81818L5.81818 26.1818H11.6364V32Z" fill="#1376BE"/>
<path d="M8.41591 0H14.5454V5.81818H11.784L8.41591 0Z" fill="#119C72"/>
<path d="M14.5454 0H20.3636V5.81818H14.5454V0Z" fill="#119C72"/>
<path d="M20.3636 0H26.1818V5.81818H20.3636V0Z" fill="#119C72"/>
<path d="M23.2727 17.4545H26.1818V23.2727H23.2727V17.4545Z" fill="#119C72"/>
<path d="M26.1818 0C29.3951 0 32 2.60489 32 5.81818H26.1818V0Z" fill="#119C72"/>
<path d="M5.81818 32C2.60489 32 -2.80915e-07 29.3951 0 26.1818H5.81818L5.81818 32Z" fill="#1376BE"/>
<path d="M26.1818 5.81818H32V11.6364H26.1818V5.81818Z" fill="#119C72"/>
<path d="M5.81818 26.1818H0V20.3636H5.81818V26.1818Z" fill="#1376BE"/>
<path d="M26.1818 11.6364H32V17.4545H26.1818V11.6364Z" fill="#119C72"/>
<path d="M5.81818 20.3636H0V14.5455H5.81818V20.3636Z" fill="#1376BE"/>
<path d="M26.1818 17.4545H32C32 20.6678 29.3951 23.2727 26.1818 23.2727V17.4545Z" fill="#119C72"/>
<path d="M5.81818 14.5455H0C2.80915e-07 11.3322 2.60489 8.72727 5.81818 8.72727V14.5455Z" fill="#1376BE"/>
<path d="M18.4972 17.4545H23.2727V23.2727H21.847L18.4972 17.4545Z" fill="#119C72"/>
<path d="M11.6364 14.5455H5.81818V8.72727H11.6364V14.5455Z" fill="#1376BE"/>
<path d="M17.4545 14.5455H11.6364V8.72727H17.4545V14.5455Z" fill="#1376BE"/>
<path d="M23.2727 13.9636C23.2727 14.285 23.0122 14.5455 22.6909 14.5455H17.4545V8.72727H22.6909C23.0122 8.72727 23.2727 8.98776 23.2727 9.30909V13.9636Z" fill="#1376BE"/>
<path d="M6.98182 14.5455C6.33916 14.5455 5.81818 15.0664 5.81818 15.7091L5.81818 14.5455H6.98182Z" fill="#1376BE"/>
<path d="M5.81818 25.0182C5.81818 25.6608 6.33916 26.1818 6.98182 26.1818H5.81818L5.81818 25.0182Z" fill="#1376BE"/>
<path d="M9.30909 17.4545H15.1386L18.4908 23.2727H9.30909C8.98776 23.2727 8.72727 23.0122 8.72727 22.6909V18.0364C8.72727 17.715 8.98776 17.4545 9.30909 17.4545Z" fill="#DD980A"/>
<path d="M25.0182 17.4545H26.1818V16.2909C26.1818 16.9336 25.6608 17.4545 25.0182 17.4545Z" fill="#119C72"/>
<path d="M26.1818 5.81818H25.0182C25.6608 5.81818 26.1818 6.33916 26.1818 6.98182V5.81818Z" fill="#119C72"/>
</svg>
