<svg width="50" height="50" viewBox="0 0 50 50" fill="none" xmlns="http://www.w3.org/2000/svg">
<g clip-path="url(#clip0_10549_128199)">
<path d="M44.21 15.423L31.1494 14.2117L25.9613 2.16453C25.598 1.32097 24.402 1.32097 24.0388 2.16453L18.8507 14.2116L5.79005 15.423C4.87549 15.5078 4.50596 16.6453 5.1959 17.2515L15.0502 25.9083L12.1663 38.7042C11.9644 39.6001 12.9321 40.3031 13.7217 39.8342L25 33.1373L36.2784 39.8342C37.0681 40.3032 38.0356 39.6001 37.8338 38.7042L34.9498 25.9083L44.8042 17.2515C45.4941 16.6453 45.1245 15.5078 44.21 15.423Z" fill="#00664B"/>
<path d="M11.6483 1.75065C12.3141 2.67546 14.1934 6.64714 15.2678 8.9618C15.4368 9.32566 14.9802 9.65438 14.6887 9.37869C12.8345 7.62556 9.66412 4.58337 8.9983 3.65847C8.47144 2.92673 8.63755 1.90641 9.36939 1.37956C10.1011 0.852699 11.1214 1.01891 11.6483 1.75065Z" fill="#B0E9DA"/>
<path d="M38.3518 1.75065C37.686 2.67546 35.8067 6.64714 34.7323 8.9618C34.5634 9.32566 35.0199 9.65438 35.3114 9.37869C37.1656 7.62556 40.3359 4.58327 41.0019 3.65847C41.5287 2.92673 41.3626 1.90641 40.6308 1.37956C39.899 0.852699 38.8787 1.01891 38.3518 1.75065Z" fill="#B0E9DA"/>
<path d="M48.8732 28.8705C47.7898 28.5172 43.4349 27.9335 40.9033 27.6132C40.5054 27.5628 40.3309 28.0977 40.682 28.2916C42.9157 29.5255 46.7773 31.6216 47.8607 31.9749C48.718 32.2545 49.6396 31.7863 49.9191 30.9289C50.1987 30.0716 49.7305 29.1501 48.8732 28.8705Z" fill="#B0E9DA"/>
<path d="M1.12687 28.8705C2.21027 28.5172 6.56526 27.9335 9.09681 27.6132C9.49476 27.5628 9.66918 28.0977 9.3181 28.2916C7.08441 29.5255 3.22278 31.6216 2.13938 31.9749C1.28215 32.2545 0.360564 31.7863 0.0809739 30.9289C-0.198616 30.0716 0.269646 29.1501 1.12687 28.8705Z" fill="#B0E9DA"/>
<path d="M23.4174 47.2963C23.4174 46.1567 24.2129 41.8354 24.6933 39.3293C24.7688 38.9353 25.3314 38.9353 25.4069 39.3293C25.8874 41.8354 26.6828 46.1567 26.6828 47.2963C26.6828 48.1979 25.9518 48.9289 25.0502 48.9289C24.1484 48.929 23.4174 48.1979 23.4174 47.2963Z" fill="#B0E9DA"/>
<path d="M27.8478 6.5454L25.9612 2.16453C25.5979 1.32097 24.4019 1.32097 24.0387 2.16453L18.8506 14.2116L5.79005 15.423C4.87549 15.5078 4.50596 16.6453 5.1959 17.2515L15.0502 25.9083L12.1663 38.7042C11.9644 39.6001 12.9321 40.3031 13.7217 39.8342L15.2228 38.9429C17.6836 23.0132 24.6018 11.3196 27.8478 6.5454Z" fill="#008661"/>
</g>
<defs>
<clipPath id="clip0_10549_128199">
<rect width="50" height="50" fill="white"/>
</clipPath>
</defs>
</svg>
